<svg xmlns="http://www.w3.org/2000/svg" xmlns:xlink="http://www.w3.org/1999/xlink" width="500" zoomAndPan="magnify" viewBox="0 0 375 374.999991" height="500" preserveAspectRatio="xMidYMid meet" version="1.0"><defs><clipPath id="008939a553"><path d="M 16 19.5 L 182 19.5 L 182 355.5 L 16 355.5 Z M 16 19.5 " clip-rule="nonzero"/></clipPath><clipPath id="6aaaf147a4"><path d="M 193 19.5 L 359 19.5 L 359 355.5 L 193 355.5 Z M 193 19.5 " clip-rule="nonzero"/></clipPath><clipPath id="cc60ca6a91"><path d="M 152.957031 83.628906 L 154.375 83.628906 L 154.375 84.847656 L 152.957031 84.847656 Z M 152.957031 83.628906 " clip-rule="nonzero"/></clipPath><clipPath id="320c17e84a"><path d="M 154.351562 84.074219 C 153.75 85.050781 153.148438 84.898438 153 84.675781 C 152.925781 84.449219 153 83.851562 153.226562 83.699219 C 153.375 83.550781 154.199219 83.773438 154.199219 83.773438 " clip-rule="nonzero"/></clipPath></defs><g clip-path="url(#008939a553)"><path fill="#fdba01" d="M 173.0625 347.652344 C 133.847656 312.738281 111.417969 262.738281 111.417969 210.234375 L 111.417969 197.832031 C 111.417969 197.832031 130.960938 230.789062 140.441406 226.859375 C 142.515625 226 142.527344 222.238281 141.445312 217.207031 C 137.171875 197.339844 121.027344 182.207031 101.027344 178.601562 C 72.015625 173.371094 36.554688 156.660156 29.078125 103.585938 C 25.730469 79.832031 32.980469 32.101562 20.269531 19.714844 L 20.265625 19.710938 C 25.496094 34.460938 22.332031 59.351562 20.265625 69.582031 C 15.261719 94.367188 14.050781 128.191406 28.914062 152.742188 C 25.796875 165.339844 24.132812 178.515625 24.132812 192.082031 C 24.132812 280.328125 94.132812 352.214844 181.632812 355.277344 L 173.0625 347.652344 " fill-opacity="1" fill-rule="nonzero"/></g><path fill="#fdba01" d="M 127.679688 138.164062 C 133.757812 138.238281 141.167969 137.46875 148.785156 138.289062 C 158.613281 139.34375 177.558594 146.625 187.445312 146.625 C 197.335938 146.625 216.277344 139.34375 226.109375 138.289062 C 233.722656 137.46875 241.132812 138.238281 247.210938 138.164062 C 269.71875 137.898438 302.726562 136.300781 319.339844 95.792969 C 289.628906 55.167969 241.628906 28.769531 187.445312 28.769531 C 133.261719 28.769531 85.261719 55.167969 55.550781 95.792969 C 72.160156 136.300781 105.171875 137.898438 127.679688 138.164062 " fill-opacity="1" fill-rule="nonzero"/><g clip-path="url(#6aaaf147a4)"><path fill="#fdba01" d="M 354.625 69.582031 C 352.5625 59.351562 349.394531 34.460938 354.625 19.710938 L 354.621094 19.714844 C 341.910156 32.101562 349.160156 79.832031 345.8125 103.585938 C 338.339844 156.660156 302.875 173.371094 273.863281 178.601562 C 253.863281 182.207031 237.722656 197.339844 233.445312 217.207031 C 232.359375 222.238281 232.375 226 234.449219 226.859375 C 243.929688 230.789062 263.476562 197.832031 263.476562 197.832031 L 263.476562 210.234375 C 263.476562 262.738281 241.042969 312.738281 201.828125 347.652344 L 193.257812 355.277344 C 280.761719 352.214844 350.757812 280.328125 350.757812 192.082031 C 350.757812 178.515625 349.09375 165.339844 345.976562 152.742188 C 360.839844 128.191406 359.628906 94.367188 354.625 69.582031 " fill-opacity="1" fill-rule="nonzero"/></g><g clip-path="url(#cc60ca6a91)"><g clip-path="url(#320c17e84a)"><path fill="#fdba01" d="M 150 80.699219 L 157.417969 80.699219 L 157.417969 87.976562 L 150 87.976562 Z M 150 80.699219 " fill-opacity="1" fill-rule="nonzero"/></g></g></svg>